<svg width="42" height="42" viewBox="0 0 42 42" fill="none" xmlns="http://www.w3.org/2000/svg">
<circle cx="21" cy="21" r="20" fill="#D9D9D9" stroke="#3D3D3D" stroke-width="2"/>
<mask id="mask0_69_2355" style="mask-type:alpha" maskUnits="userSpaceOnUse" x="0" y="0" width="42" height="42">
<circle cx="21" cy="21" r="20" fill="#D9D9D9" stroke="#888888" stroke-width="2"/>
</mask>
<g mask="url(#mask0_69_2355)">
<path d="M8 40C8 32.9123 13.8203 27.1667 21 27.1667C28.1797 27.1667 34 32.9123 34 40M28.4286 14.3333C28.4286 18.3834 25.1026 21.6667 21 21.6667C16.8973 21.6667 13.5714 18.3834 13.5714 14.3333C13.5714 10.2832 16.8973 7 21 7C25.1026 7 28.4286 10.2832 28.4286 14.3333Z" fill="#F1F1F1"/>
<path d="M8 40C8 32.9123 13.8203 27.1667 21 27.1667C28.1797 27.1667 34 32.9123 34 40M28.4286 14.3333C28.4286 18.3834 25.1026 21.6667 21 21.6667C16.8973 21.6667 13.5714 18.3834 13.5714 14.3333C13.5714 10.2832 16.8973 7 21 7C25.1026 7 28.4286 10.2832 28.4286 14.3333Z" stroke="#3D3D3D" stroke-width="2" stroke-linecap="round" stroke-linejoin="round"/>
<circle cx="21" cy="21" r="20" stroke="#3D3D3D" stroke-width="2"/>
</g>
</svg>
