<svg width="28" height="22" viewBox="0 0 28 22" fill="none" xmlns="http://www.w3.org/2000/svg">
<path fill-rule="evenodd" clip-rule="evenodd" d="M14.1559 0.000135053C20.3886 0.0885505 25.4383 5.83202 28 10.6536C28 10.6536 27.1618 12.3583 26.3166 13.5389C25.9075 14.1101 25.4772 14.6665 25.0251 15.2046C24.7027 15.5878 24.3697 15.9609 24.0243 16.3234C20.9374 19.5653 16.5042 21.9838 11.8229 21.0448C6.62232 20.0015 2.5499 15.4463 0 10.6536C0 10.6536 0.735617 8.90652 1.58558 7.72765C1.96636 7.19892 2.366 6.68435 2.7845 6.18509C3.10515 5.80255 3.43759 5.42943 3.78123 5.06693C6.50856 2.19284 10.008 -0.0199058 14.1559 0.000135053ZM14.1341 2.35788C10.6623 2.34491 7.77526 4.28357 5.49119 6.69024C5.18056 7.01738 4.88112 7.35453 4.59112 7.69994C4.20976 8.15499 3.84548 8.62477 3.49831 9.10634C3.17765 9.55136 2.87527 10.1703 2.64303 10.633C4.86698 14.4455 8.11654 17.8966 12.2868 18.733C16.1553 19.5093 19.7656 17.3767 22.3167 14.6977C22.6285 14.3706 22.9297 14.0328 23.2208 13.6869C23.6335 13.1958 24.026 12.6883 24.3991 12.1667C24.7274 11.7081 25.0734 11.1252 25.3352 10.6536C23.011 6.72973 19.0571 2.43451 14.1341 2.35788Z" fill="#888888"/>
<path fill-rule="evenodd" clip-rule="evenodd" d="M13.9467 5.90747C16.555 5.90747 18.6728 8.02532 18.6728 10.633C18.6728 13.2412 16.555 15.3585 13.9467 15.3585C11.339 15.3585 9.22119 13.2412 9.22119 10.633C9.22119 8.02532 11.339 5.90747 13.9467 5.90747ZM13.9467 8.27052C15.2511 8.27052 16.3098 9.32915 16.3098 10.633C16.3098 11.9374 15.2511 12.996 13.9467 12.996C12.6429 12.996 11.5842 11.9374 11.5842 10.633C11.5842 9.32915 12.6429 8.27052 13.9467 8.27052Z" fill="#888888"/>
</svg>
