<svg width="28" height="26" viewBox="0 0 28 26" fill="none" xmlns="http://www.w3.org/2000/svg">
<path fill-rule="evenodd" clip-rule="evenodd" d="M3.25623 0L1.4458 1.80985L24.7429 25.1075L26.5533 23.2971L3.25623 0Z" fill="#888888"/>
<path d="M5.27112 5.63494L6.97516 7.33897C5.10978 8.92727 3.62437 10.9043 2.6645 12.6341L2.66157 12.6399C5.33484 17.1096 9.57652 21.3337 14.9301 20.693C16.3751 20.52 17.7232 20.026 18.9549 19.3193L20.6799 21.0438C18.2791 22.5847 15.5269 23.4008 12.545 22.9974C7.16807 22.2702 2.77147 17.8602 0 12.6808C1.30127 10.0625 3.0813 7.55761 5.27112 5.63494ZM9.14685 3.10957C10.6504 2.43965 12.2773 2.04564 14.0146 2.01758C14.1111 2.017 15.2563 2.07136 15.7754 2.15671C16.101 2.21049 16.4254 2.27772 16.7452 2.36131C21.8456 3.69005 25.6243 8.23864 28 12.6808C27.0033 14.6935 25.6979 16.4209 24.1412 18.1039L22.4886 16.4513C23.6385 15.212 24.606 14.0189 25.3443 12.6808C25.3443 12.6808 24.5931 11.3006 24.0301 10.5512C23.6683 10.0695 23.2877 9.60187 22.8879 9.15116C22.5722 8.79574 21.3464 7.58859 21.0547 7.33722C19.0975 5.65423 16.7995 4.33367 14.0433 4.35589C12.9758 4.37284 11.9493 4.58329 10.9748 4.93754L9.14685 3.10957Z" fill="#888888"/>
<path fill-rule="evenodd" clip-rule="evenodd" d="M9.90974 10.2738L11.3121 11.6756C11.2204 11.9544 11.1701 12.2525 11.1701 12.5618C11.1701 14.1238 12.438 15.3917 14 15.3917C14.3093 15.3917 14.6074 15.342 14.8862 15.2497L16.2886 16.6521C15.6117 17.032 14.8307 17.2483 14 17.2483C11.4133 17.2483 9.31348 15.1485 9.31348 12.5618C9.31348 11.7311 9.53035 10.9507 9.90974 10.2738ZM13.9135 7.87641C13.9421 7.87583 13.9714 7.87524 14 7.87524C16.5868 7.87524 18.6866 9.97562 18.6866 12.5618C18.6866 12.591 18.6866 12.6197 18.686 12.6483L13.9135 7.87641Z" fill="#888888"/>
</svg>
