<svg width="107" height="49" viewBox="0 0 107 49" fill="none" xmlns="http://www.w3.org/2000/svg">
<path d="M11.0833 34L10.1552 28.88H5.77125L4.90725 34H0.331249L4.68325 11.824H11.3713L15.6593 34H11.0833ZM6.44325 24.816H9.45125L7.91525 16.24L6.44325 24.816ZM37.9715 16.912V18.992C37.9715 21.0613 37.2142 22.3307 35.6995 22.8C37.3422 23.184 38.1635 24.464 38.1635 26.64V28.912C38.1635 32.304 36.3502 34 32.7235 34H24.9475V11.824H32.5315C36.1582 11.824 37.9715 13.52 37.9715 16.912ZM31.7315 15.856H29.7475V20.688H31.7315C32.7342 20.688 33.2355 20.2293 33.2355 19.312V17.232C33.2355 16.3147 32.7342 15.856 31.7315 15.856ZM33.4275 28.592V26.32C33.4275 25.4027 32.9262 24.944 31.9235 24.944H29.7475V29.968H31.9235C32.9262 29.968 33.4275 29.5093 33.4275 28.592ZM57.8808 34L56.9528 28.88H52.5688L51.7048 34H47.1288L51.4808 11.824H58.1688L62.4568 34H57.8808ZM53.2408 24.816H56.2488L54.7128 16.24L53.2408 24.816ZM83.329 11.824V15.984H79.329V34H74.465V15.984H70.465V11.824H83.329ZM100.901 17.488C100.901 16.4213 100.261 15.888 98.9805 15.888C97.7218 15.888 97.0925 16.4213 97.0925 17.488V28.336C97.0925 29.4027 97.7218 29.936 98.9805 29.936C100.261 29.936 100.901 29.4027 100.901 28.336V17.488ZM92.2925 17.232C92.2925 15.4827 92.8578 14.096 93.9885 13.072C95.1192 12.0267 96.7832 11.504 98.9805 11.504C101.178 11.504 102.842 12.0267 103.973 13.072C105.125 14.096 105.701 15.4827 105.701 17.232V28.592C105.701 30.3413 105.125 31.7387 103.973 32.784C102.842 33.808 101.178 34.32 98.9805 34.32C96.7832 34.32 95.1192 33.808 93.9885 32.784C92.8578 31.7387 92.2925 30.3413 92.2925 28.592V17.232Z" fill="white"/>
</svg>
