<svg width="26" height="24" viewBox="0 0 26 24" fill="none" xmlns="http://www.w3.org/2000/svg">
<path d="M10.3333 7.66667H19.6667M10.3333 13H19.6667M6.33333 7.66667H6.34667M6.33333 13H6.34667M25 22.3333L20.5676 20.1171C20.2316 19.9491 20.0636 19.8651 19.8875 19.8059C19.7312 19.7533 19.5703 19.7153 19.4069 19.6924C19.2229 19.6667 19.0351 19.6667 18.6595 19.6667H5.26667C3.77319 19.6667 3.02645 19.6667 2.45603 19.376C1.95425 19.1204 1.54631 18.7124 1.29065 18.2107C1 17.6403 1 16.8935 1 15.4V5.26667C1 3.77319 1 3.02645 1.29065 2.45603C1.54631 1.95425 1.95425 1.54631 2.45603 1.29065C3.02645 1 3.7732 1 5.26667 1H20.7333C22.2268 1 22.9736 1 23.544 1.29065C24.0457 1.54631 24.4537 1.95425 24.7093 2.45603C25 3.02645 25 3.7732 25 5.26667V22.3333Z" stroke="#888888" stroke-width="2" stroke-linecap="round" stroke-linejoin="round"/>
</svg>
